# AST/ASF file generated using VICON BodyLanguage
# -----------------------------------------------
:version 1.10
:name VICON
:units
  mass 1.0
  length 0.45
  angle deg
:documentation
   .ast/.asf automatically generated from VICON data using
   VICON BodyBuilder and BodyLanguage model FoxedUp or BRILLIANT.MOD
:root
   order TX TY TZ RX RY RZ
   axis XYZ
   position 0 0 0  
   orientation 0 0 0 
:bonedata
  begin
     id 1 
     name lhipjoint
     direction 0.61886 -0.69539 0.365302 
     length 2.20474 
     axis 0 0 0  XYZ
  end
  begin
     id 2 
     name lfemur
     direction 0.34202 -0.939693 0  
     length 6.65149  
     axis 0 0 20  XYZ
    dof rx ry rz
    limits (-160.0 20.0)
           (-70.0 70.0)
           (-60.0 70.0)
  end
  begin
     id 3 
     name ltibia
     direction 0.34202 -0.939693 0   
     length 6.35814   
     axis 0 0 20   XYZ
    dof rx
    limits (-10.0 170.0)
  end
  begin
     id 4 
     name lfoot
     direction 0.101224 -0.278109 0.955201   
     length 2.18766   
     axis -90 7.62852e-016 20   XYZ
    dof rx rz
    limits (-45.0 90.0)
           (-70.0 20.0)
  end
  begin
     id 5 
     name ltoes
     direction 1.53524e-011 -4.21877e-011 1   
     length 1.09206   
     axis -90 7.62852e-016 20   XYZ
    dof rx
    limits (-90.0 20.0)
  end
  begin
     id 6 
     name rhipjoint
     direction -0.600207 -0.708087 0.371972   
     length 2.1652  
     axis 0 0 0  XYZ 
  end
  begin
     id 7 
     name rfemur
     direction -0.34202 -0.939693 0   
     length 6.54691   
     axis 0 0 -20   XYZ
    dof rx ry rz
    limits (-160.0 20.0)
           (-70.0 70.0)
           (-70.0 60.0)
  end
  begin
     id 8 
     name rtibia
     direction -0.34202 -0.939693 0   
     length 6.37474   
     axis 0 0 -20   XYZ
    dof rx
    limits (-10.0 170.0)
 end
 begin
     id 9 
     name rfoot
     direction -0.111266 -0.3057 0.945604   
     length 2.00903  
     axis -90 -7.62852e-016 -20   XYZ
    dof rx rz
    limits (-45.0 90.0)
           (-20.0 70.0)
  end
  begin
     id 10 
     name rtoes
     direction -1.5362e-011 -4.21913e-011 1   
     length 1.00221   
     axis -90 -7.62852e-016 -20   XYZ
    dof rx
    limits (-90.0 20.0)
  end
  begin
     id 11 
     name lowerback
     direction -0.0224561 0.999731 -0.00577314   
     length 2.10409   
     axis 0 0 0   XYZ
    dof rx ry rz
    limits (-20.0 45.0)
           (-30.0 30.0)
           (-30.0 30.0)
  end
  begin
     id 12 
     name upperback
     direction 0.0213126 0.999185 -0.0342817   
     length 2.09783   
     axis 0 0 0   XYZ
    dof rx ry rz
    limits (-20.0 45.0)
           (-30.0 30.0)
           (-30.0 30.0)
  end
  begin
     id 13 
     name thorax
     direction 0.0312356 0.999036 -0.0308451   
     length 2.09788   
     axis 0 0 0   XYZ
    dof rx ry rz
    limits (-20.0 45.0)
           (-30.0 30.0)
           (-30.0 30.0)
  end
  begin
     id 14 
     name lowerneck
     direction -0.0114419 0.996481 0.0830329   
     length 1.38575   
     axis 0 0 0   XYZ
    dof rx ry rz
    limits (-20.0 45.0)
           (-30.0 30.0)
           (-30.0 30.0)
  end
  begin
     id 15 
     name upperneck
     direction -0.0075675 0.996187 -0.0869092   
     length 1.39401   
     axis 0 0 0   XYZ
    dof rx ry rz
    limits (-20.0 45.0)
           (-30.0 30.0)
           (-30.0 30.0)
  end
  begin
     id 16
     name head
     direction -0.00222073 0.999264 -0.0382974  
     length 1.3964  
     axis 0 0 0   XYZ
    dof rx ry rz
    limits (-20.0 45.0)
           (-30.0 30.0)
           (-30.0 30.0)
  end
  begin
     id 17 
     name lclavicle
     direction 0.965962 0.222138 0.132556  
     length 2.81514  
     axis 0 0 0   XYZ
    dof ry rz
    limits (-20.0 10.0)
           (0.0 20.0)
  end
  begin
     id 18 
     name lhumerus
     direction 1 -4.48972e-011 7.03471e-018   
     length 4.47366   
     axis 180 -30 -90   XYZ
    dof rx ry rz
    limits (-60.0 90.0)
           (-90.0 90.0)
           (-90.0 90.0)
  end
  begin
     id 19
     name lradius
     direction 1 -4.48951e-011 -6.22192e-028   
     length 3.19948   
     axis 180 -30 -90   XYZ
    dof rx
    limits (-10.0 170.0)
  end
  begin
     id 20
     name lwrist
     direction 1 -4.48967e-011 -1.24264e-027   
     length 1.59974   
     axis 1.40095e-015 90 90   XYZ
    dof ry
    limits (-180.0 0.0)
 end
  begin
     id 21 
     name lhand
     direction 1 -4.4897e-011 -2.48528e-027   
     length 0.492667   
     axis 1.58582e-015 90 90   XYZ
    dof rx rz
    limits (-90.0 90.0)
           (-45.0 45.0)
  end
  begin
     id 22 
     name lfingers
     direction 1 -4.48996e-011 -4.97056e-027   
     length 0.397201   
     axis 3.17164e-015 90 90   XYZ
    dof rx
    limits (0.0 90.0)
  end
  begin
     id 23
     name lthumb
     direction 0.707107 -6.34981e-011 0.707107   
     length 0.570303   
     axis -90 45 2.85299e-015   XYZ
    dof rx rz
    limits (-45.0 45.0)
           (-45.0 45.0)
  end
  begin
     id 24 
     name rclavicle
     direction -0.961164 0.229034 0.153972   
     length 3.09348  
     axis 0 0 0   XYZ 
    dof ry rz
    limits (-10.0 20.0)
           (-20.0 0.0)
  end
  begin
     id 25 
     name rhumerus
     direction -1 -4.48971e-011 -9.06263e-028  
     length 4.3269   
     axis 180 30 90   XYZ
    dof rx ry rz
    limits (-90.0 60.0)
           (-90.0 90.0)
           (-90.0 90.0)
  end
  begin
     id 26 
     name rradius
     direction -1 -4.48953e-011 1.44659e-027   
     length 3.1896   
     axis 180 30 90   XYZ
    dof rx
    limits (-10.0 170.0)
  end
  begin
     id 27 
     name rwrist
     direction -1 -4.48988e-011 -1.24264e-027   
     length 1.5948   
     axis 1.40095e-015 -90 -90   XYZ
    dof ry
    limits (-180.0 0.0)
  end
  begin
     id 28
     name rhand
     direction -1 -4.49033e-011 -2.48528e-027   
     length 0.464496   
     axis 1.58582e-015 -90 -90   XYZ
    dof rx rz
    limits (-90.0 90.0)
           (-45.0 45.0)
  end
  begin
     id 29
     name rfingers
     direction -1 -4.48905e-011 -4.97056e-027   
     length 0.374489   
     axis 3.17164e-015 -90 -90   XYZ
    dof rx
    limits (0.0 90.0)
  end
  begin
     id 30
     name rthumb
     direction -0.707107 -6.34909e-011 0.707107   
     length 0.537693   
     axis -90 -45 -2.85299e-015   XYZ
    dof rx rz
    limits (-45.0 45.0)
           (-45.0 45.0)
  end
:hierarchy
  begin
    root lhipjoint rhipjoint lowerback
    lhipjoint lfemur
    lfemur ltibia
    ltibia lfoot
    lfoot ltoes
    rhipjoint rfemur
    rfemur rtibia
    rtibia rfoot
    rfoot rtoes
    lowerback upperback
    upperback thorax
    thorax lowerneck lclavicle rclavicle
    lowerneck upperneck
    upperneck head
    lclavicle lhumerus
    lhumerus lradius
    lradius lwrist
    lwrist lhand lthumb
    lhand lfingers
    rclavicle rhumerus
    rhumerus rradius
    rradius rwrist
    rwrist rhand rthumb
    rhand rfingers
  end

#!OML:ASF G:\acrobat\cartwheel_test 2\Patient 1\Session 2\acrobat4.ASF
:FULLY-SPECIFIED
:DEGREES
60
root 7.6398 15.3476 12.7675 15.0363 54.5038 9.35012
lowerback -3.29947 -6.50948 -2.26628
upperback -0.804357 -8.61088 0.91455
thorax 1.47828 -4.31244 1.76759
lowerneck -2.59219 15.6252 9.09735
upperneck 7.00544 22.4428 -17.1226
head 5.53602 10.7538 -4.93664
rclavicle -1.1609e-013 -1.59028e-015
rhumerus -75.7967 -35.6934 30.2322
rradius 31.1975
rwrist -43.6511
rhand -14.3673 -38.0506
rfingers 7.12502
rthumb 11.7749 -67.6996
lclavicle -1.1609e-013 -1.59028e-015
lhumerus 27.7991 -38.7003 35.7729
lradius 76.7564
lwrist -163.768
lhand -38.2692 -1.24152
lfingers 7.12502
lthumb -11.2989 28.4341
rfemur -26.9553 16.5805 14.2677
rtibia 41.3587
rfoot -18.1646 -13.2635
rtoes -4.95835
lfemur -8.91816 22.8959 -12.6548
ltibia 39.8063
lfoot -15.7972 29.0024
ltoes -4.53809
61
root 7.62077 15.3541 12.7172 14.9362 53.8591 9.13392
lowerback -3.39451 -6.63317 -2.37815
upperback -0.770484 -8.77147 1.01544
thorax 1.60639 -4.39505 1.90388
lowerneck -2.27598 15.5959 9.31082
upperneck 7.1193 22.4386 -17.2275
head 5.55458 10.7647 -5.01853
rclavicle 7.43952e-014 5.56597e-015
rhumerus -76.0449 -34.5208 29.0354
rradius 31.1445
rwrist -43.324
rhand -12.3435 -38.4927
rfingers 7.12502
rthumb 13.7259 -68.02
lclavicle 7.43952e-014 5.56597e-015
lhumerus 23.9256 -36.5098 39.7327
lradius 74.8257
lwrist -165.889
lhand -38.1815 -1.42157
lfingers 7.12502
lthumb -11.2143 28.2587
rfemur -27.3652 16.6174 14.0837
rtibia 41.2679
rfoot -18.0473 -12.6851
rtoes -5.05611
lfemur -7.91625 25.023 -12.3752
ltibia 40.7511
lfoot -13.7141 27.7049
ltoes -8.14087
62
root 7.60134 15.3538 12.6618 14.848 53.3292 8.92418
lowerback -3.50212 -6.71959 -2.40636
upperback -0.680751 -8.88452 1.08475
thorax 1.77988 -4.45446 1.96042
lowerneck -2.29525 15.5974 9.35857
upperneck 7.40909 22.4656 -17.1246
head 5.64322 10.7678 -4.9819
rclavicle -2.38542e-015 2.38542e-015
rhumerus -76.166 -33.6213 27.7766
rradius 30.9197
rwrist -41.422
rhand -12.0681 -39.9857
rfingers 7.12502
rthumb 13.9913 -69.4948
lclavicle -2.38542e-015 2.38542e-015
lhumerus 20.2839 -33.2395 43.435
lradius 72.6456
lwrist -168.877
lhand -37.9436 -1.15768
lfingers 7.12502
lthumb -10.9849 28.5349
rfemur -27.8004 16.468 13.9335
rtibia 41.2444
rfoot -17.8405 -12.2403
rtoes -5.7164
lfemur -7.14095 26.9457 -12.1593
ltibia 41.9041
lfoot -12.2477 25.8097
ltoes -12.3669
63
root 7.58185 15.3452 12.6017 14.7452 52.9211 8.78277
lowerback -3.50425 -6.8233 -2.45246
upperback -0.575256 -9.02206 1.12431
thorax 1.91082 -4.52611 2.00661
lowerneck -2.22818 15.6361 9.52788
upperneck 7.54222 22.5419 -17.1839
head 5.71008 10.8034 -5.0119
rclavicle 1.91827e-014 1.59028e-015
rhumerus -76.4414 -33.3248 27.2803
rradius 30.4798
rwrist -39.0579
rhand -10.8523 -40.2424
rfingers 7.12502
rthumb 15.1628 -69.6669
lclavicle 1.91827e-014 1.59028e-015
lhumerus 17.1341 -29.0746 46.5067
lradius 70.0244
lwrist -171.589
lhand -36.5256 -2.09355
lfingers 7.12502
lthumb -9.6169 27.6669
rfemur -28.1598 16.4665 13.7416
rtibia 41.2786
rfoot -17.6217 -12.1206
rtoes -6.78591
lfemur -6.58606 29.004 -11.9458
ltibia 43.0679
lfoot -10.7559 23.2188
ltoes -17.3059
64
root 7.56272 15.3363 12.5435 14.5329 52.6697 8.55137
lowerback -3.47099 -6.88927 -2.44041
upperback -0.438391 -9.11174 1.13506
thorax 2.03844 -4.57361 1.9982
lowerneck -2.19515 15.6482 9.85679
upperneck 7.65564 22.5822 -17.3297
head 5.80103 10.8209 -5.08952
rclavicle -1.32192e-013 -5.56597e-015
rhumerus -76.7268 -33.1078 26.6823
rradius 30.2852
rwrist -37.5783
rhand -10.9376 -39.9386
rfingers 7.12502
rthumb 15.0806 -69.3693
lclavicle -1.32192e-013 -5.56597e-015
lhumerus 14.651 -24.3126 48.7353
lradius 66.8616
lwrist -173.345
lhand -34.6775 -2.32895
lfingers 7.12502
lthumb -7.8335 27.5059
rfemur -28.4238 16.8919 13.592
rtibia 41.3388
rfoot -17.4243 -12.519
rtoes -7.88074
lfemur -6.39904 30.6773 -11.8147
ltibia 44.0257
lfoot -9.82747 20.983
ltoes -23.705
65
root 7.54559 15.3321 12.4846 14.3656 52.5983 8.31375
lowerback -3.46686 -6.86175 -2.33402
upperback -0.36267 -9.07919 1.13234
thorax 2.09554 -4.55771 1.93597
lowerneck -2.2525 15.5897 9.98893
upperneck 7.94773 22.5311 -17.2806
head 5.90276 10.7849 -5.08718
rclavicle -5.06901e-014 -3.18055e-015
rhumerus -77.0578 -32.8106 26.3226
rradius 30.2149
rwrist -36.7557
rhand -10.4145 -40.2946
rfingers 7.12502
rthumb 15.5845 -69.6868
lclavicle -5.06901e-014 -3.18055e-015
lhumerus 12.6994 -19.3759 50.302
lradius 63.4946
lwrist -174.174
lhand -34.7765 -2.37179
lfingers 7.12502
lthumb -7.92903 27.4595
rfemur -28.6948 17.2985 13.4264
rtibia 41.3966
rfoot -17.1654 -13.3351
rtoes -8.74811
lfemur -6.70694 31.5621 -12.0608
ltibia 44.6554
lfoot -10.515 20.2673
ltoes -31.6086
66
root 7.53331 15.33 12.4209 14.2966 52.721 8.12813
lowerback -3.46748 -6.83393 -2.21945
upperback -0.361714 -9.04747 1.18614
thorax 2.08625 -4.54111 1.93142
lowerneck -2.24112 15.5393 9.90291
upperneck 8.16732 22.4925 -17.2061
head 5.94431 10.7589 -5.05619
rclavicle 1.27719e-013 -1.19271e-014
rhumerus -77.2106 -32.6788 26.2514
rradius 30.0982
rwrist -35.8425
rhand -9.59738 -40.3976
rfingers 7.12502
rthumb 16.3713 -69.7266
lclavicle 1.27719e-013 -1.19271e-014
lhumerus 10.9951 -14.2869 51.2889
lradius 60.3772
lwrist -174.733
lhand -34.696 -2.94284
lfingers 7.12502
lthumb -7.85139 26.8914
rfemur -28.9627 17.353 13.238
rtibia 41.4032
rfoot -16.7501 -14.1984
rtoes -9.17096
lfemur -7.46383 32.1113 -12.6105
ltibia 45.0472
lfoot -12.4666 20.8887
ltoes -30.6367
67
root 7.52301 15.3322 12.3588 14.2088 53.0246 7.93444
lowerback -3.47559 -6.77612 -2.13606
upperback -0.326841 -8.975 1.26307
thorax 2.12249 -4.50528 1.9658
lowerneck -2.29791 15.476 9.93409
upperneck 8.31252 22.4438 -17.3117
head 6.00918 10.7234 -5.09006
rclavicle -4.49253e-014 1.27222e-014
rhumerus -77.3718 -32.6697 26.4514
rradius 29.9047
rwrist -34.8138
rhand -10.3266 -41.5608
rfingers 7.12502
rthumb 15.6691 -70.9463
lclavicle -4.49253e-014 1.27222e-014
lhumerus 9.73357 -9.11506 51.6707
lradius 57.3706
lwrist -175.4
lhand -34.5078 -7.01814
lfingers 7.12502
lthumb -7.66972 22.8228
rfemur -29.0975 17.2789 13.1131
rtibia 41.3167
rfoot -16.3495 -14.9072
rtoes -9.34446
lfemur -8.32296 32.5937 -13.1386
ltibia 45.4186
lfoot -14.8057 21.66
ltoes -27.2109
68
root 7.51256 15.3402 12.2979 14.2713 53.5542 7.90539
lowerback -3.42911 -6.69192 -2.0998
upperback -0.359452 -8.86588 1.31927
thorax 2.06063 -4.45013 2.01908
lowerneck -2.31548 15.3791 10.0391
upperneck 8.43425 22.3624 -17.519
head 6.07669 10.6741 -5.17226
rclavicle 7.95139e-016 -1.03368e-014
rhumerus -76.927 -32.3802 25.9112
rradius 29.7573
rwrist -33.2723
rhand -11.0048 -41.3425
rfingers 7.12502
rthumb 15.0158 -70.778
lclavicle 7.95139e-016 -1.03368e-014
lhumerus 8.63014 -4.29831 51.4683
lradius 54.5682
lwrist -176.297
lhand -34.0159 -8.65807
lfingers 7.12502
lthumb -7.19487 21.1996
rfemur -29.165 17.0537 12.9396
rtibia 41.1702
rfoot -16.042 -15.5891
rtoes -10.0673
lfemur -9.20912 33.5561 -13.72
ltibia 45.862
lfoot -15.4664 22.3296
ltoes -26.0209
69
root 7.5032 15.3472 12.2378 14.354 54.3554 7.84411
lowerback -3.44923 -6.62922 -2.05057
upperback -0.364161 -8.78555 1.4155
thorax 2.07043 -4.41016 2.09308
lowerneck -2.45125 15.3281 10.0017
upperneck 8.45796 22.3196 -17.6694
head 6.11598 10.6393 -5.20625
rclavicle 1.29508e-013 0
rhumerus -76.3869 -32.1405 25.3319
rradius 29.6574
rwrist -31.8739
rhand -14.0765 -41.7497
rfingers 7.12502
rthumb 12.0554 -71.3825
lclavicle 1.29508e-013 0
lhumerus 7.64713 -0.192283 50.4998
lradius 52.0656
lwrist -177.353
lhand -33.093 -9.44384
lfingers 7.12502
lthumb -6.30396 20.4424
rfemur -29.2118 16.8679 12.8206
rtibia 41.047
rfoot -15.6684 -16.5044
rtoes -11.211
lfemur -10.181 34.7474 -14.2997
ltibia 46.2632
lfoot -14.6393 23.0674
ltoes -28.5417
70
root 7.49526 15.3412 12.1794 14.1814 55.3501 7.52607
lowerback -3.52054 -6.46909 -1.87609
upperback -0.276475 -8.57958 1.50372
thorax 2.1772 -4.30765 2.08779
lowerneck -2.72243 15.2637 9.90447
upperneck 8.4413 22.2216 -17.6757
head 6.13291 10.5758 -5.18733
rclavicle -4.42296e-014 -1.90833e-014
rhumerus -76.1458 -31.8464 24.9235
rradius 29.5991
rwrist -30.2076
rhand -13.9885 -40.75
rfingers 7.12502
rthumb 12.1402 -70.3778
lclavicle -4.42296e-014 -1.90833e-014
lhumerus 7.01877 3.0989 48.9896
lradius 49.6679
lwrist -178.28
lhand -32.311 -9.43801
lfingers 7.12502
lthumb -5.54902 20.4693
rfemur -29.1762 17.1724 12.8229
rtibia 40.9669
rfoot -15.2393 -17.7701
rtoes -11.9663
lfemur -10.9569 34.6857 -14.4381
ltibia 46.5615
lfoot -15.5188 23.089
ltoes -27.7003
71
root 7.4885 15.3213 12.1182 14.0156 56.4504 7.28392
lowerback -3.48295 -6.21109 -1.69354
upperback -0.243409 -8.2431 1.51127
thorax 2.14755 -4.13795 2.02294
lowerneck -2.87759 15.1449 9.84793
upperneck 8.41611 22.0371 -17.5907
head 6.10809 10.4827 -5.16926
rclavicle -3.58806e-014 -1.59028e-015
rhumerus -76.0005 -31.4586 24.7667
rradius 29.4894
rwrist -28.6281
rhand -11.528 -39.4752
rfingers 7.12502
rthumb 14.5118 -68.9476
lclavicle -3.58806e-014 -1.59028e-015
lhumerus 6.39819 5.62649 47.1294
lradius 47.5814
lwrist -179.287
lhand -31.6846 -9.31899
lfingers 7.12502
lthumb -4.94415 20.6033
rfemur -29.1368 17.7899 12.7123
rtibia 40.9613
rfoot -14.9024 -19.2363
rtoes -12.4448
lfemur -11.4084 33.1308 -14.2584
ltibia 46.5941
lfoot -18.1866 22.0762
ltoes -22.2791
72
root 7.48068 15.3169 12.0625 14.0427 57.6837 7.24394
lowerback -3.42885 -6.04812 -1.76611
upperback -0.237291 -8.02474 1.56497
thorax 2.13016 -4.03005 2.13658
lowerneck -2.90908 15.1235 9.85412
upperneck 8.27928 21.9919 -17.6197
head 6.06876 10.4661 -5.18521
rclavicle 8.38871e-014 6.36111e-015
rhumerus -75.448 -31.4392 24.4631
rradius 29.3669
rwrist -27.4921
rhand -12.2799 -39.6962
rfingers 7.12502
rthumb 13.7872 -69.2193
lclavicle 8.38871e-014 6.36111e-015
lhumerus 5.39582 8.22636 44.9897
lradius 45.9016
lwrist -180.571
lhand -31.1168 -9.49917
lfingers 7.12502
lthumb -4.39592 20.4352
rfemur -29.0931 18.1005 12.559
rtibia 40.9713
rfoot -14.6924 -20.544
rtoes -12.7178
lfemur -11.7451 32.4178 -14.2217
ltibia 46.5682
lfoot -18.7025 21.0486
ltoes -21.2089
73
root 7.47129 15.3191 12.0091 14.2026 59.1452 7.3654
lowerback -3.30436 -6.04236 -2.10356
upperback -0.249009 -8.00921 1.69974
thorax 2.11351 -4.0267 2.47035
lowerneck -2.89605 15.2568 10.0063
upperneck 8.14992 22.1859 -17.8089
head 6.09491 10.5644 -5.23583
rclavicle -1.20861e-013 4.77083e-015
rhumerus -74.5233 -31.8871 24.1204
rradius 29.1468
rwrist -26.2633
rhand -13.9992 -39.527
rfingers 7.12502
rthumb 12.1299 -69.1554
lclavicle -1.20861e-013 4.77083e-015
lhumerus 3.96881 11.3546 42.7057
lradius 44.5066
lwrist -182.17
lhand -31.2494 -9.40922
lfingers 7.12502
lthumb -4.52399 20.5225
rfemur -28.9666 18.0173 12.4362
rtibia 40.964
rfoot -14.5639 -21.705
rtoes -12.8569
lfemur -12.1401 32.0429 -14.1544
ltibia 46.5279
lfoot -18.199 20.092
ltoes -22.0803
74
root 7.46262 15.3229 11.9583 14.5563 60.9426 7.73241
lowerback -3.11583 -5.96583 -2.41088
upperback -0.312071 -7.89929 1.68429
thorax 1.97591 -3.97297 2.6532
lowerneck -2.83439 15.3149 10.3239
upperneck 8.16606 22.2772 -17.8885
head 6.14832 10.618 -5.29112
rclavicle 6.77856e-014 -5.56597e-015
rhumerus -73.6412 -31.9724 23.3796
rradius 29.2684
rwrist -26.1759
rhand -14.7147 -40.645
rfingers 7.12502
rthumb 11.4399 -70.3129
lclavicle 6.77856e-014 -5.56597e-015
lhumerus 2.60407 13.9739 40.3093
lradius 43.407
lwrist -183.474
lhand -31.128 -6.91812
lfingers 7.12502
lthumb -4.40676 23.016
rfemur -28.6527 17.9736 12.2574
rtibia 40.9133
rfoot -14.5101 -23.1855
rtoes -12.6824
lfemur -12.6827 31.8592 -14.0627
ltibia 46.7228
lfoot -17.6115 18.8107
ltoes -23.2495
